<svg width="9" height="18" viewBox="0 0 9 18" fill="none" xmlns="http://www.w3.org/2000/svg">
<path d="M7.50778 17.1645C7.77808 17.165 8.04004 17.0703 8.24818 16.8967C8.36532 16.799 8.46215 16.679 8.53313 16.5436C8.60411 16.4081 8.64783 16.2599 8.6618 16.1075C8.67577 15.955 8.65971 15.8012 8.61454 15.655C8.56937 15.5088 8.49598 15.373 8.39857 15.2554L3.21577 9.01589L8.21347 2.76475C8.30957 2.64567 8.38133 2.50867 8.42463 2.3616C8.46794 2.21453 8.48193 2.0603 8.4658 1.90777C8.44968 1.75524 8.40375 1.60742 8.33067 1.47281C8.25758 1.3382 8.15878 1.21945 8.03994 1.12339C7.92024 1.01741 7.78007 0.937476 7.62821 0.888598C7.47636 0.839719 7.3161 0.822952 7.1575 0.839348C6.9989 0.855744 6.84538 0.904949 6.70658 0.983876C6.56778 1.0628 6.44668 1.16975 6.3509 1.298L0.763194 8.28251C0.593039 8.4908 0.500019 8.75207 0.500019 9.02171C0.500019 9.29134 0.593039 9.55261 0.763194 9.7609L6.54757 16.7454C6.66362 16.8863 6.81105 16.9976 6.97788 17.0705C7.14471 17.1433 7.32626 17.1755 7.50778 17.1645Z" fill="#3C4563"/>
</svg>
